<svg width="1200" height="600" viewBox="0 0 1200 600" fill="none" xmlns="http://www.w3.org/2000/svg">
  <path d="M120,60 L180,60 L240,120 L300,60 L360,60 L420,120 L480,60 L540,60 L600,120 L660,60 L720,60 L780,120 L840,60 L900,60 L960,120 L1020,60 L1080,60" stroke="#1e3a8a" stroke-width="2" fill="none"/>
  <path d="M120,120 L180,120 L240,180 L300,120 L360,120 L420,180 L480,120 L540,120 L600,180 L660,120 L720,120 L780,180 L840,120 L900,120 L960,180 L1020,120 L1080,120" stroke="#1e3a8a" stroke-width="2" fill="none"/>
  <path d="M120,180 L180,180 L240,240 L300,180 L360,180 L420,240 L480,180 L540,180 L600,240 L660,180 L720,180 L780,240 L840,180 L900,180 L960,240 L1020,180 L1080,180" stroke="#1e3a8a" stroke-width="2" fill="none"/>
  <path d="M120,240 L180,240 L240,300 L300,240 L360,240 L420,300 L480,240 L540,240 L600,300 L660,240 L720,240 L780,300 L840,240 L900,240 L960,300 L1020,240 L1080,240" stroke="#1e3a8a" stroke-width="2" fill="none"/>
  <path d="M120,300 L180,300 L240,360 L300,300 L360,300 L420,360 L480,300 L540,300 L600,360 L660,300 L720,300 L780,360 L840,300 L900,300 L960,360 L1020,300 L1080,300" stroke="#1e3a8a" stroke-width="2" fill="none"/>
  <path d="M120,360 L180,360 L240,420 L300,360 L360,360 L420,420 L480,360 L540,360 L600,420 L660,360 L720,360 L780,420 L840,360 L900,360 L960,420 L1020,360 L1080,360" stroke="#1e3a8a" stroke-width="2" fill="none"/>
  <path d="M120,420 L180,420 L240,480 L300,420 L360,420 L420,480 L480,420 L540,420 L600,480 L660,420 L720,420 L780,480 L840,420 L900,420 L960,480 L1020,420 L1080,420" stroke="#1e3a8a" stroke-width="2" fill="none"/>
  <path d="M120,480 L180,480 L240,540 L300,480 L360,480 L420,540 L480,480 L540,480 L600,540 L660,480 L720,480 L780,540 L840,480 L900,480 L960,540 L1020,480 L1080,480" stroke="#1e3a8a" stroke-width="2" fill="none"/>
  
  <!-- Continents Outlines -->
  <path d="M300,180 C320,160 340,150 360,160 C380,170 400,160 420,150 C440,140 460,150 480,160 C500,170 520,160 540,150 C560,140 580,150 600,160 C620,170 640,160 660,150 C680,140 700,150 720,160" stroke="#1e3a8a" stroke-width="4" fill="none"/>
  <path d="M200,240 C220,220 240,210 260,220 C280,230 300,220 320,210 C340,200 360,210 380,220 C400,230 420,220 440,210 C460,200 480,210 500,220 C520,230 540,220 560,210 C580,200 600,210 620,220" stroke="#1e3a8a" stroke-width="4" fill="none"/>
  <path d="M400,300 C420,280 440,270 460,280 C480,290 500,280 520,270 C540,260 560,270 580,280 C600,290 620,280 640,270 C660,260 680,270 700,280 C720,290 740,280 760,270 C780,260 800,270 820,280" stroke="#1e3a8a" stroke-width="4" fill="none"/>
  <path d="M300,360 C320,340 340,330 360,340 C380,350 400,340 420,330 C440,320 460,330 480,340 C500,350 520,340 540,330 C560,320 580,330 600,340 C620,350 640,340 660,330 C680,320 700,330 720,340" stroke="#1e3a8a" stroke-width="4" fill="none"/>
</svg>
